<?xml version="1.0" encoding="utf-8"?>
<!-- Generator: Adobe Illustrator 16.0.0, SVG Export Plug-In . SVG Version: 6.00 Build 0)  -->
<!DOCTYPE svg PUBLIC "-//W3C//DTD SVG 1.1//EN" "http://www.w3.org/Graphics/SVG/1.1/DTD/svg11.dtd">
<svg version="1.1" xmlns="http://www.w3.org/2000/svg" xmlns:xlink="http://www.w3.org/1999/xlink" x="0px" y="0px" width="461px"
	 height="461px" viewBox="0 0 461 461" enable-background="new 0 0 461 461" xml:space="preserve">
<g id="Square" display="none">
	<rect x="5.174" y="35" display="inline" width="429" height="429"/>
</g>
<g id="Circle" display="none">
	<circle display="inline" stroke="#000000" stroke-miterlimit="10" cx="230.5" cy="230.5" r="240.834"/>
</g>
<g id="ReferenceImage" display="none">
</g>
<g id="LogoOutlines" display="none">
	<polygon display="inline" fill="none" stroke="#000000" stroke-miterlimit="10" points="235.499,230.587 332.998,232.289 
		390.337,82.916 285.819,197.909 	"/>
	<g id="XMLID_1_" display="inline">
		<g>
		</g>
		<g>
			<polygon fill="none" stroke="#000000" stroke-miterlimit="10" points="228.08,226.126 179.6,138.667 21.15,160.937 
				174.62,198.887 			"/>
		</g>
	</g>
	<polygon display="inline" fill="none" stroke="#000000" stroke-miterlimit="10" points="227.925,234.786 231.065,294.704 
		274.927,446.584 176.421,320.502 	"/>
</g>
<g id="Colors1" display="none">
	<polygon display="inline" fill="#A73023" points="235.499,230.587 332.998,232.289 390.337,82.916 285.819,197.909 	"/>
	<g id="XMLID_2_" display="inline">
		<g>
			<polygon fill="#A73023" points="179.6,138.667 228.08,226.126 174.62,198.887 21.15,160.937 			"/>
		</g>
		<g>
		</g>
	</g>
	<polygon display="inline" fill="#A73023" points="227.925,234.786 231.065,294.704 274.927,446.584 176.421,320.502 	"/>
</g>
<g id="Colors2">
	<polygon fill="#A92B23" points="235.499,230.587 332.998,232.289 390.337,82.916 285.819,197.909 	"/>
	<g id="XMLID_3_">
		<g>
			<polygon fill="#A92B23" points="179.6,138.667 228.08,226.126 174.62,198.887 21.15,160.937 			"/>
		</g>
		<g>
		</g>
	</g>
	<polygon fill="#A92B23" points="227.925,234.786 231.065,294.704 274.927,446.584 176.421,320.502 	"/>
</g>
<g id="Guides" display="none">
	
		<line display="inline" opacity="0.5" fill="none" stroke="#000000" stroke-miterlimit="10" x1="230.5" y1="230.5" x2="230.5" y2="230.5"/>
	<g display="inline" opacity="0.5">
		<g>
			<line fill="none" stroke="#000000" stroke-miterlimit="10" x1="230.5" y1="230.5" x2="233" y2="230.543"/>
			
				<line fill="none" stroke="#000000" stroke-miterlimit="10" stroke-dasharray="5,5" x1="237.999" y1="230.631" x2="425.471" y2="233.903"/>
			<line fill="none" stroke="#000000" stroke-miterlimit="10" x1="427.97" y1="233.947" x2="430.47" y2="233.99"/>
		</g>
	</g>
	
		<line display="inline" opacity="0.5" fill="none" stroke="#000000" stroke-miterlimit="10" stroke-dasharray="5" x1="230.5" y1="230.5" x2="133.538" y2="55.576"/>
	
		<line display="inline" fill="none" stroke="#000000" stroke-miterlimit="10" stroke-dasharray="5" x1="230.5" y1="230.5" x2="127.492" y2="401.933"/>
	
		<line display="inline" opacity="0.5" fill="none" stroke="#000000" stroke-miterlimit="10" stroke-dasharray="5" x1="230.5" y1="230.5" x2="227.925" y2="234.786"/>
	<path display="inline" opacity="0.5" fill="none" stroke="#000000" stroke-miterlimit="10" stroke-dasharray="5" d="
		M227.925,234.786"/>
	
		<line display="inline" opacity="0.5" fill="none" stroke="#000000" stroke-miterlimit="10" stroke-dasharray="5" x1="235.499" y1="230.587" x2="319.366" y2="176.124"/>
	
		<line display="inline" opacity="0.5" fill="none" stroke="#000000" stroke-miterlimit="10" stroke-dasharray="5" x1="228.076" y1="226.127" x2="138.976" y2="180.728"/>
	
		<line display="inline" opacity="0.5" fill="none" stroke="#000000" stroke-miterlimit="10" stroke-dasharray="5" x1="227.925" y1="234.786" x2="233.158" y2="334.649"/>
</g>
<g id="Layer_8" display="none">
	<circle display="inline" fill="#FFFFFF" stroke="#000000" stroke-miterlimit="10" cx="230.5" cy="230.5" r="230.5"/>
</g>
</svg>
